<svg width="15" height="11" viewBox="0 0 15 11" fill="none" xmlns="http://www.w3.org/2000/svg">
<path d="M14.7071 4.73321C12.9473 2.6067 10.2835 0.559753 7.49996 0.559753C4.71584 0.559753 2.05142 2.60814 0.292844 4.73321C-0.0113516 5.10065 -0.0113516 5.63406 0.292844 6.0015C0.734972 6.53578 1.66187 7.56712 2.89982 8.46826C6.01758 10.7379 8.97546 10.7429 12.1001 8.46826C13.338 7.56712 14.2649 6.53578 14.7071 6.0015C15.0104 5.63478 15.012 5.10185 14.7071 4.73321ZM7.49996 2.16229C9.26732 2.16229 10.705 3.59999 10.705 5.36736C10.705 7.13472 9.26732 8.57242 7.49996 8.57242C5.73259 8.57242 4.29489 7.13472 4.29489 5.36736C4.29489 3.59999 5.73259 2.16229 7.49996 2.16229Z" fill="#424242"/>
</svg>
