<svg width="33" height="27" viewBox="0 0 33 27" fill="none" xmlns="http://www.w3.org/2000/svg">
<path d="M29.5729 0H3.28588C2.41441 0 1.57863 0.34619 0.962412 0.962412C0.34619 1.57863 0 2.41441 0 3.28588V23.0012C0 23.8726 0.34619 24.7084 0.962412 25.3246C1.57863 25.9409 2.41441 26.287 3.28588 26.287H29.5729C30.4444 26.287 31.2802 25.9409 31.8964 25.3246C32.5126 24.7084 32.8588 23.8726 32.8588 23.0012V3.28588C32.8588 2.41441 32.5126 1.57863 31.8964 0.962412C31.2802 0.34619 30.4444 0 29.5729 0ZM3.28588 24.6441C2.85015 24.6441 2.43226 24.471 2.12415 24.1629C1.81604 23.8548 1.64294 23.4369 1.64294 23.0012V20.0521L8.2147 13.4803C8.43318 13.2636 8.72844 13.142 9.03617 13.142C9.3439 13.142 9.63916 13.2636 9.85764 13.4803L13.6282 17.2509L6.23496 24.6441H3.28588ZM31.2159 23.0012C31.2159 23.4369 31.0428 23.8548 30.7347 24.1629C30.4266 24.471 30.0087 24.6441 29.5729 24.6441H8.55151L21.3089 11.8949C21.5489 11.6509 21.8745 11.5102 22.2165 11.5025C22.5586 11.4948 22.8902 11.6209 23.1408 11.8538L31.2159 19.247V23.0012ZM31.2159 17.0209L24.2498 10.6791C23.686 10.1609 22.9435 9.88098 22.1779 9.89782C21.4124 9.91466 20.683 10.227 20.1425 10.7695L14.7865 16.0926L11.0159 12.3221C10.4907 11.7973 9.7786 11.5026 9.03617 11.5026C8.29374 11.5026 7.58168 11.7973 7.05643 12.3221L1.64294 17.7355V3.28588C1.64294 2.85015 1.81604 2.43226 2.12415 2.12415C2.43226 1.81604 2.85015 1.64294 3.28588 1.64294H29.5729C30.0087 1.64294 30.4266 1.81604 30.7347 2.12415C31.0428 2.43226 31.2159 2.85015 31.2159 3.28588V17.0209Z" fill="#B7B7C2"/>
</svg>
