<svg width="12" height="13" viewBox="0 0 12 13" fill="none" xmlns="http://www.w3.org/2000/svg">
<path d="M9.34623 7.83013L10.9767 6.1994C12.166 5.01023 12.166 3.07469 10.9767 1.88561C9.78739 0.696008 7.85196 0.696008 6.66288 1.88561L4.31001 4.23848C3.12062 5.42765 3.12062 7.36319 4.31001 8.55227C4.48563 8.728 4.67781 8.87699 4.88124 9.00074L6.14087 7.74099C5.90094 7.68358 5.67331 7.5625 5.48654 7.37585C4.94598 6.83528 4.94598 5.95544 5.48654 5.41496L7.83952 3.06198C8.38008 2.52141 9.25993 2.52141 9.80041 3.06198C10.341 3.60254 10.341 4.48217 9.80041 5.02286L9.10915 5.71423C9.39397 6.38481 9.47272 7.12211 9.34633 7.83015L9.34623 7.83013Z" fill="#424242"/>
<path d="M2.81229 5.73613L1.18175 7.36676C-0.00784904 8.55603 -0.00784904 10.4915 1.18175 11.6805C2.37091 12.8699 4.30645 12.8699 5.49554 11.6805L7.84841 9.32756C9.03779 8.13829 9.03769 6.20286 7.84841 5.01377C7.67289 4.83804 7.48071 4.68905 7.27729 4.56531L6.01765 5.82505C6.25748 5.88257 6.48511 6.00333 6.67199 6.1902C7.21255 6.73076 7.21255 7.61039 6.67199 8.15108L4.3189 10.5041C3.77834 11.0446 2.89871 11.0446 2.35801 10.5041C1.81745 9.9635 1.81745 9.08388 2.35801 8.54318L3.04937 7.85193C2.76445 7.18134 2.68569 6.44393 2.8122 5.73589L2.81229 5.73613Z" fill="#424242"/>
</svg>
