<svg width="13" height="15" viewBox="0 0 13 15" fill="none" xmlns="http://www.w3.org/2000/svg">
<path d="M1.63223 4.64186V9.58178C1.70519 10.526 1.77744 11.7613 1.85039 12.6333C1.92264 13.6504 2.7946 14.4494 3.81248 14.4494H9.18802C10.2052 14.4494 11.0764 13.6504 11.1501 12.6333C11.2224 11.762 11.2946 10.5267 11.3676 9.58178C11.4398 8.49236 11.3676 6.23986 11.3676 4.64186H1.63223ZM11.5857 2.46232H9.76885L9.18802 1.37219C8.82464 0.718401 8.17085 0.282776 7.4441 0.282776H5.70089C4.97414 0.282776 4.24739 0.718401 3.95698 1.37219L3.23094 2.46232H1.41406C1.12364 2.46232 0.83252 2.75273 0.83252 3.04315C0.83252 3.33357 1.12294 3.62469 1.41335 3.62469H11.585C11.8754 3.62469 12.1659 3.40653 12.1659 3.04386C12.1659 2.68119 11.8761 2.46232 11.5857 2.46232ZM4.46556 2.46232L4.82894 1.88148C4.97414 1.59107 5.26456 1.37219 5.62794 1.37219H7.37185C7.73523 1.37219 8.02565 1.51811 8.17085 1.88078L8.53423 2.46161L4.46556 2.46232Z" fill="#FB6262"/>
</svg>
